<svg width="0" height="0" class="hidden">
  <symbol fill="none" xmlns="http://www.w3.org/2000/svg" viewBox="0 0 55 57" id="A">
    <path d="M28.8281 9.85156L13.3594 57H0.898438L22.0312 0.125H29.9609L28.8281 9.85156ZM41.6797 57L26.1719 9.85156L24.9219 0.125H32.9297L54.1797 57H41.6797ZM40.9766 35.8281V45.0078H10.9375V35.8281H40.9766Z" fill="black"></path>
  </symbol>
  <symbol fill="none" xmlns="http://www.w3.org/2000/svg" viewBox="0 0 47 57" id="K">
    <path d="M18 34.1875L11.9062 40.75V57H0.1875V0.125H11.9062V25.9062L17.0625 18.8359L31.5547 0.125H45.9688L25.7734 25.3984L46.5547 57H32.6094L18 34.1875Z" fill="black"></path>
  </symbol>
  <symbol fill="none" xmlns="http://www.w3.org/2000/svg" viewBox="0 0 54 64" id="Pique">
    <path fill-rule="evenodd" clip-rule="evenodd" d="M39.2435 49.9845C49.5322 50.1173 55.8616 42.5464 52.3802 34.5773C48.8987 26.608 45.428 24.815 39.9629 19.0373C34.4951 13.2596 26.5444 3.26496 26.582 0.907471C26.6222 3.26496 18.999 13.2596 13.5312 19.0373C8.06606 24.815 4.59802 26.608 1.11388 34.5773C-2.36758 42.5464 3.96454 50.1173 14.2506 49.9845C21.3128 49.8932 24.4909 45.2336 25.7874 42.3204L25.7874 46.1331C25.7874 46.1331 23.5327 59.8862 7.62048 61.3918L5.08387 61.3918L5.08387 63.5349L48.4129 63.5349L48.4129 61.3918L45.8736 61.3918C29.9641 59.8862 27.7066 46.1331 27.7066 46.1331L27.7066 42.821C29.234 45.7374 32.5732 49.8983 39.2435 49.9845Z" fill="#1A1919"></path>
  </symbol>
  <symbol fill="none" xmlns="http://www.w3.org/2000/svg" viewBox="0 0 49 69" id="Q">
    <path d="M48.6016 30.8516C48.6016 36.1641 47.7422 40.7865 46.0234 44.7188C44.3047 48.625 41.9219 51.763 38.875 54.1328L48.3281 61.5547L40.8672 68.1562L28.7578 58.4297C27.3776 58.6641 25.9453 58.7812 24.4609 58.7812C19.7474 58.7812 15.5417 57.6484 11.8438 55.3828C8.14583 53.1172 5.28125 49.888 3.25 45.6953C1.21875 41.4766 0.190104 36.6328 0.164062 31.1641V28.3516C0.164062 22.7526 1.16667 17.8307 3.17188 13.5859C5.20312 9.3151 8.05469 6.04688 11.7266 3.78125C15.4245 1.48958 19.6432 0.34375 24.3828 0.34375C29.1224 0.34375 33.3281 1.48958 37 3.78125C40.6979 6.04688 43.5495 9.3151 45.5547 13.5859C47.5859 17.8307 48.6016 22.7396 48.6016 28.3125V30.8516ZM36.7266 28.2734C36.7266 22.3099 35.6589 17.7786 33.5234 14.6797C31.388 11.5807 28.3411 10.0312 24.3828 10.0312C20.4505 10.0312 17.4167 11.5677 15.2812 14.6406C13.1458 17.6875 12.0651 22.1667 12.0391 28.0781V30.8516C12.0391 36.6589 13.1068 41.1641 15.2422 44.3672C17.3776 47.5703 20.4505 49.1719 24.4609 49.1719C28.3932 49.1719 31.4141 47.6354 33.5234 44.5625C35.6328 41.4635 36.7005 36.9583 36.7266 31.0469V28.2734Z" fill="black"></path>
  </symbol>
</svg>